<svg width="340" height="454" viewBox="0 0 340 454" fill="none" xmlns="http://www.w3.org/2000/svg">
      
      <rect y="0" x="0" width="340" height="454"></rect>
      <rect x="3" y="3" width="334" height="334" rx="19" stroke="#000000" fill="#ffffff" stroke-width="6"></rect>
      <rect x="45" y="45" width="250" height="250" rx="20" fill="none"></rect>
      
    <svg x="65" y="65" width="210" height="210" style="">
      <svg viewBox="3 3 204 204" width="210" height="210" shape-rendering="crispEdges"><g id="clip-path-dot-color" fill="#000000"><rect x="3" y="66" width="7" height="7" transform="rotate(0,6.5,69.5)"></rect><rect x="3" y="87" width="7" height="7" transform="rotate(0,6.5,90.5)"></rect><rect x="3" y="101" width="7" height="7" transform="rotate(0,6.5,104.5)"></rect><rect x="3" y="108" width="7" height="7" transform="rotate(0,6.5,111.5)"></rect><rect x="3" y="115" width="7" height="7" transform="rotate(0,6.5,118.5)"></rect><rect x="3" y="129" width="7" height="7" transform="rotate(0,6.5,132.5)"></rect><rect x="10" y="73" width="7" height="7" transform="rotate(0,13.5,76.5)"></rect><rect x="10" y="87" width="7" height="7" transform="rotate(0,13.5,90.5)"></rect><rect x="10" y="94" width="7" height="7" transform="rotate(0,13.5,97.5)"></rect><rect x="10" y="108" width="7" height="7" transform="rotate(0,13.5,111.5)"></rect><rect x="10" y="115" width="7" height="7" transform="rotate(0,13.5,118.5)"></rect><rect x="10" y="129" width="7" height="7" transform="rotate(0,13.5,132.5)"></rect><rect x="10" y="136" width="7" height="7" transform="rotate(0,13.5,139.5)"></rect><rect x="17" y="59" width="7" height="7" transform="rotate(0,20.5,62.5)"></rect><rect x="17" y="66" width="7" height="7" transform="rotate(0,20.5,69.5)"></rect><rect x="17" y="101" width="7" height="7" transform="rotate(0,20.5,104.5)"></rect><rect x="17" y="108" width="7" height="7" transform="rotate(0,20.5,111.5)"></rect><rect x="17" y="122" width="7" height="7" transform="rotate(0,20.5,125.5)"></rect><rect x="17" y="129" width="7" height="7" transform="rotate(0,20.5,132.5)"></rect><rect x="24" y="66" width="7" height="7" transform="rotate(0,27.5,69.5)"></rect><rect x="24" y="108" width="7" height="7" transform="rotate(0,27.5,111.5)"></rect><rect x="24" y="129" width="7" height="7" transform="rotate(0,27.5,132.5)"></rect><rect x="24" y="143" width="7" height="7" transform="rotate(0,27.5,146.5)"></rect><rect x="31" y="59" width="7" height="7" transform="rotate(0,34.5,62.5)"></rect><rect x="31" y="66" width="7" height="7" transform="rotate(0,34.5,69.5)"></rect><rect x="31" y="87" width="7" height="7" transform="rotate(0,34.5,90.5)"></rect><rect x="31" y="101" width="7" height="7" transform="rotate(0,34.5,104.5)"></rect><rect x="31" y="108" width="7" height="7" transform="rotate(0,34.5,111.5)"></rect><rect x="31" y="115" width="7" height="7" transform="rotate(0,34.5,118.5)"></rect><rect x="38" y="59" width="7" height="7" transform="rotate(0,41.5,62.5)"></rect><rect x="38" y="66" width="7" height="7" transform="rotate(0,41.5,69.5)"></rect><rect x="38" y="80" width="7" height="7" transform="rotate(0,41.5,83.5)"></rect><rect x="38" y="101" width="7" height="7" transform="rotate(0,41.5,104.5)"></rect><rect x="38" y="108" width="7" height="7" transform="rotate(0,41.5,111.5)"></rect><rect x="38" y="122" width="7" height="7" transform="rotate(0,41.5,125.5)"></rect><rect x="38" y="129" width="7" height="7" transform="rotate(0,41.5,132.5)"></rect><rect x="38" y="136" width="7" height="7" transform="rotate(0,41.5,139.5)"></rect><rect x="45" y="59" width="7" height="7" transform="rotate(0,48.5,62.5)"></rect><rect x="45" y="73" width="7" height="7" transform="rotate(0,48.5,76.5)"></rect><rect x="45" y="87" width="7" height="7" transform="rotate(0,48.5,90.5)"></rect><rect x="45" y="101" width="7" height="7" transform="rotate(0,48.5,104.5)"></rect><rect x="45" y="115" width="7" height="7" transform="rotate(0,48.5,118.5)"></rect><rect x="45" y="129" width="7" height="7" transform="rotate(0,48.5,132.5)"></rect><rect x="45" y="143" width="7" height="7" transform="rotate(0,48.5,146.5)"></rect><rect x="52" y="66" width="7" height="7" transform="rotate(0,55.5,69.5)"></rect><rect x="52" y="80" width="7" height="7" transform="rotate(0,55.5,83.5)"></rect><rect x="52" y="87" width="7" height="7" transform="rotate(0,55.5,90.5)"></rect><rect x="52" y="115" width="7" height="7" transform="rotate(0,55.5,118.5)"></rect><rect x="52" y="122" width="7" height="7" transform="rotate(0,55.5,125.5)"></rect><rect x="52" y="129" width="7" height="7" transform="rotate(0,55.5,132.5)"></rect><rect x="59" y="10" width="7" height="7" transform="rotate(0,62.5,13.5)"></rect><rect x="59" y="31" width="7" height="7" transform="rotate(0,62.5,34.5)"></rect><rect x="59" y="45" width="7" height="7" transform="rotate(0,62.5,48.5)"></rect><rect x="59" y="59" width="7" height="7" transform="rotate(0,62.5,62.5)"></rect><rect x="59" y="66" width="7" height="7" transform="rotate(0,62.5,69.5)"></rect><rect x="59" y="94" width="7" height="7" transform="rotate(0,62.5,97.5)"></rect><rect x="59" y="122" width="7" height="7" transform="rotate(0,62.5,125.5)"></rect><rect x="59" y="129" width="7" height="7" transform="rotate(0,62.5,132.5)"></rect><rect x="59" y="150" width="7" height="7" transform="rotate(0,62.5,153.5)"></rect><rect x="59" y="164" width="7" height="7" transform="rotate(0,62.5,167.5)"></rect><rect x="59" y="171" width="7" height="7" transform="rotate(0,62.5,174.5)"></rect><rect x="59" y="185" width="7" height="7" transform="rotate(0,62.5,188.5)"></rect><rect x="66" y="3" width="7" height="7" transform="rotate(0,69.5,6.5)"></rect><rect x="66" y="17" width="7" height="7" transform="rotate(0,69.5,20.5)"></rect><rect x="66" y="31" width="7" height="7" transform="rotate(0,69.5,34.5)"></rect><rect x="66" y="38" width="7" height="7" transform="rotate(0,69.5,41.5)"></rect><rect x="66" y="52" width="7" height="7" transform="rotate(0,69.5,55.5)"></rect><rect x="66" y="59" width="7" height="7" transform="rotate(0,69.5,62.5)"></rect><rect x="66" y="73" width="7" height="7" transform="rotate(0,69.5,76.5)"></rect><rect x="66" y="94" width="7" height="7" transform="rotate(0,69.5,97.5)"></rect><rect x="66" y="108" width="7" height="7" transform="rotate(0,69.5,111.5)"></rect><rect x="66" y="115" width="7" height="7" transform="rotate(0,69.5,118.5)"></rect><rect x="66" y="143" width="7" height="7" transform="rotate(0,69.5,146.5)"></rect><rect x="66" y="150" width="7" height="7" transform="rotate(0,69.5,153.5)"></rect><rect x="66" y="157" width="7" height="7" transform="rotate(0,69.5,160.5)"></rect><rect x="66" y="171" width="7" height="7" transform="rotate(0,69.5,174.5)"></rect><rect x="66" y="192" width="7" height="7" transform="rotate(0,69.5,195.5)"></rect><rect x="66" y="199" width="7" height="7" transform="rotate(0,69.5,202.5)"></rect><rect x="73" y="17" width="7" height="7" transform="rotate(0,76.5,20.5)"></rect><rect x="73" y="31" width="7" height="7" transform="rotate(0,76.5,34.5)"></rect><rect x="73" y="45" width="7" height="7" transform="rotate(0,76.5,48.5)"></rect><rect x="73" y="52" width="7" height="7" transform="rotate(0,76.5,55.5)"></rect><rect x="73" y="87" width="7" height="7" transform="rotate(0,76.5,90.5)"></rect><rect x="73" y="94" width="7" height="7" transform="rotate(0,76.5,97.5)"></rect><rect x="73" y="143" width="7" height="7" transform="rotate(0,76.5,146.5)"></rect><rect x="73" y="150" width="7" height="7" transform="rotate(0,76.5,153.5)"></rect><rect x="73" y="171" width="7" height="7" transform="rotate(0,76.5,174.5)"></rect><rect x="73" y="178" width="7" height="7" transform="rotate(0,76.5,181.5)"></rect><rect x="73" y="199" width="7" height="7" transform="rotate(0,76.5,202.5)"></rect><rect x="80" y="3" width="7" height="7" transform="rotate(0,83.5,6.5)"></rect><rect x="80" y="17" width="7" height="7" transform="rotate(0,83.5,20.5)"></rect><rect x="80" y="24" width="7" height="7" transform="rotate(0,83.5,27.5)"></rect><rect x="80" y="31" width="7" height="7" transform="rotate(0,83.5,34.5)"></rect><rect x="80" y="38" width="7" height="7" transform="rotate(0,83.5,41.5)"></rect><rect x="80" y="66" width="7" height="7" transform="rotate(0,83.5,69.5)"></rect><rect x="80" y="80" width="7" height="7" transform="rotate(0,83.5,83.5)"></rect><rect x="80" y="87" width="7" height="7" transform="rotate(0,83.5,90.5)"></rect><rect x="80" y="122" width="7" height="7" transform="rotate(0,83.5,125.5)"></rect><rect x="80" y="143" width="7" height="7" transform="rotate(0,83.5,146.5)"></rect><rect x="80" y="150" width="7" height="7" transform="rotate(0,83.5,153.5)"></rect><rect x="80" y="171" width="7" height="7" transform="rotate(0,83.5,174.5)"></rect><rect x="80" y="178" width="7" height="7" transform="rotate(0,83.5,181.5)"></rect><rect x="80" y="192" width="7" height="7" transform="rotate(0,83.5,195.5)"></rect><rect x="80" y="199" width="7" height="7" transform="rotate(0,83.5,202.5)"></rect><rect x="87" y="3" width="7" height="7" transform="rotate(0,90.5,6.5)"></rect><rect x="87" y="10" width="7" height="7" transform="rotate(0,90.5,13.5)"></rect><rect x="87" y="24" width="7" height="7" transform="rotate(0,90.5,27.5)"></rect><rect x="87" y="45" width="7" height="7" transform="rotate(0,90.5,48.5)"></rect><rect x="87" y="66" width="7" height="7" transform="rotate(0,90.5,69.5)"></rect><rect x="87" y="87" width="7" height="7" transform="rotate(0,90.5,90.5)"></rect><rect x="87" y="94" width="7" height="7" transform="rotate(0,90.5,97.5)"></rect><rect x="87" y="101" width="7" height="7" transform="rotate(0,90.5,104.5)"></rect><rect x="87" y="115" width="7" height="7" transform="rotate(0,90.5,118.5)"></rect><rect x="87" y="122" width="7" height="7" transform="rotate(0,90.5,125.5)"></rect><rect x="87" y="136" width="7" height="7" transform="rotate(0,90.5,139.5)"></rect><rect x="87" y="164" width="7" height="7" transform="rotate(0,90.5,167.5)"></rect><rect x="87" y="178" width="7" height="7" transform="rotate(0,90.5,181.5)"></rect><rect x="87" y="199" width="7" height="7" transform="rotate(0,90.5,202.5)"></rect><rect x="94" y="3" width="7" height="7" transform="rotate(0,97.5,6.5)"></rect><rect x="94" y="10" width="7" height="7" transform="rotate(0,97.5,13.5)"></rect><rect x="94" y="24" width="7" height="7" transform="rotate(0,97.5,27.5)"></rect><rect x="94" y="38" width="7" height="7" transform="rotate(0,97.5,41.5)"></rect><rect x="94" y="59" width="7" height="7" transform="rotate(0,97.5,62.5)"></rect><rect x="94" y="115" width="7" height="7" transform="rotate(0,97.5,118.5)"></rect><rect x="94" y="129" width="7" height="7" transform="rotate(0,97.5,132.5)"></rect><rect x="94" y="157" width="7" height="7" transform="rotate(0,97.5,160.5)"></rect><rect x="94" y="171" width="7" height="7" transform="rotate(0,97.5,174.5)"></rect><rect x="94" y="185" width="7" height="7" transform="rotate(0,97.5,188.5)"></rect><rect x="94" y="199" width="7" height="7" transform="rotate(0,97.5,202.5)"></rect><rect x="101" y="24" width="7" height="7" transform="rotate(0,104.5,27.5)"></rect><rect x="101" y="38" width="7" height="7" transform="rotate(0,104.5,41.5)"></rect><rect x="101" y="45" width="7" height="7" transform="rotate(0,104.5,48.5)"></rect><rect x="101" y="59" width="7" height="7" transform="rotate(0,104.5,62.5)"></rect><rect x="101" y="66" width="7" height="7" transform="rotate(0,104.5,69.5)"></rect><rect x="101" y="101" width="7" height="7" transform="rotate(0,104.5,104.5)"></rect><rect x="101" y="108" width="7" height="7" transform="rotate(0,104.5,111.5)"></rect><rect x="101" y="115" width="7" height="7" transform="rotate(0,104.5,118.5)"></rect><rect x="101" y="129" width="7" height="7" transform="rotate(0,104.5,132.5)"></rect><rect x="101" y="143" width="7" height="7" transform="rotate(0,104.5,146.5)"></rect><rect x="101" y="157" width="7" height="7" transform="rotate(0,104.5,160.5)"></rect><rect x="101" y="171" width="7" height="7" transform="rotate(0,104.5,174.5)"></rect><rect x="101" y="199" width="7" height="7" transform="rotate(0,104.5,202.5)"></rect><rect x="108" y="31" width="7" height="7" transform="rotate(0,111.5,34.5)"></rect><rect x="108" y="38" width="7" height="7" transform="rotate(0,111.5,41.5)"></rect><rect x="108" y="73" width="7" height="7" transform="rotate(0,111.5,76.5)"></rect><rect x="108" y="87" width="7" height="7" transform="rotate(0,111.5,90.5)"></rect><rect x="108" y="115" width="7" height="7" transform="rotate(0,111.5,118.5)"></rect><rect x="108" y="122" width="7" height="7" transform="rotate(0,111.5,125.5)"></rect><rect x="108" y="143" width="7" height="7" transform="rotate(0,111.5,146.5)"></rect><rect x="108" y="150" width="7" height="7" transform="rotate(0,111.5,153.5)"></rect><rect x="108" y="164" width="7" height="7" transform="rotate(0,111.5,167.5)"></rect><rect x="108" y="178" width="7" height="7" transform="rotate(0,111.5,181.5)"></rect><rect x="108" y="192" width="7" height="7" transform="rotate(0,111.5,195.5)"></rect><rect x="115" y="3" width="7" height="7" transform="rotate(0,118.5,6.5)"></rect><rect x="115" y="10" width="7" height="7" transform="rotate(0,118.5,13.5)"></rect><rect x="115" y="17" width="7" height="7" transform="rotate(0,118.5,20.5)"></rect><rect x="115" y="24" width="7" height="7" transform="rotate(0,118.5,27.5)"></rect><rect x="115" y="38" width="7" height="7" transform="rotate(0,118.5,41.5)"></rect><rect x="115" y="45" width="7" height="7" transform="rotate(0,118.5,48.5)"></rect><rect x="115" y="108" width="7" height="7" transform="rotate(0,118.5,111.5)"></rect><rect x="115" y="115" width="7" height="7" transform="rotate(0,118.5,118.5)"></rect><rect x="115" y="122" width="7" height="7" transform="rotate(0,118.5,125.5)"></rect><rect x="115" y="129" width="7" height="7" transform="rotate(0,118.5,132.5)"></rect><rect x="115" y="143" width="7" height="7" transform="rotate(0,118.5,146.5)"></rect><rect x="115" y="192" width="7" height="7" transform="rotate(0,118.5,195.5)"></rect><rect x="115" y="199" width="7" height="7" transform="rotate(0,118.5,202.5)"></rect><rect x="122" y="3" width="7" height="7" transform="rotate(0,125.5,6.5)"></rect><rect x="122" y="10" width="7" height="7" transform="rotate(0,125.5,13.5)"></rect><rect x="122" y="17" width="7" height="7" transform="rotate(0,125.5,20.5)"></rect><rect x="122" y="24" width="7" height="7" transform="rotate(0,125.5,27.5)"></rect><rect x="122" y="38" width="7" height="7" transform="rotate(0,125.5,41.5)"></rect><rect x="122" y="59" width="7" height="7" transform="rotate(0,125.5,62.5)"></rect><rect x="122" y="101" width="7" height="7" transform="rotate(0,125.5,104.5)"></rect><rect x="122" y="150" width="7" height="7" transform="rotate(0,125.5,153.5)"></rect><rect x="122" y="157" width="7" height="7" transform="rotate(0,125.5,160.5)"></rect><rect x="122" y="171" width="7" height="7" transform="rotate(0,125.5,174.5)"></rect><rect x="122" y="199" width="7" height="7" transform="rotate(0,125.5,202.5)"></rect><rect x="129" y="38" width="7" height="7" transform="rotate(0,132.5,41.5)"></rect><rect x="129" y="45" width="7" height="7" transform="rotate(0,132.5,48.5)"></rect><rect x="129" y="52" width="7" height="7" transform="rotate(0,132.5,55.5)"></rect><rect x="129" y="59" width="7" height="7" transform="rotate(0,132.5,62.5)"></rect><rect x="129" y="80" width="7" height="7" transform="rotate(0,132.5,83.5)"></rect><rect x="129" y="87" width="7" height="7" transform="rotate(0,132.5,90.5)"></rect><rect x="129" y="94" width="7" height="7" transform="rotate(0,132.5,97.5)"></rect><rect x="129" y="101" width="7" height="7" transform="rotate(0,132.5,104.5)"></rect><rect x="129" y="108" width="7" height="7" transform="rotate(0,132.5,111.5)"></rect><rect x="129" y="143" width="7" height="7" transform="rotate(0,132.5,146.5)"></rect><rect x="129" y="178" width="7" height="7" transform="rotate(0,132.5,181.5)"></rect><rect x="129" y="185" width="7" height="7" transform="rotate(0,132.5,188.5)"></rect><rect x="129" y="199" width="7" height="7" transform="rotate(0,132.5,202.5)"></rect><rect x="136" y="31" width="7" height="7" transform="rotate(0,139.5,34.5)"></rect><rect x="136" y="52" width="7" height="7" transform="rotate(0,139.5,55.5)"></rect><rect x="136" y="80" width="7" height="7" transform="rotate(0,139.5,83.5)"></rect><rect x="136" y="87" width="7" height="7" transform="rotate(0,139.5,90.5)"></rect><rect x="136" y="108" width="7" height="7" transform="rotate(0,139.5,111.5)"></rect><rect x="136" y="115" width="7" height="7" transform="rotate(0,139.5,118.5)"></rect><rect x="136" y="122" width="7" height="7" transform="rotate(0,139.5,125.5)"></rect><rect x="136" y="129" width="7" height="7" transform="rotate(0,139.5,132.5)"></rect><rect x="136" y="164" width="7" height="7" transform="rotate(0,139.5,167.5)"></rect><rect x="136" y="171" width="7" height="7" transform="rotate(0,139.5,174.5)"></rect><rect x="136" y="178" width="7" height="7" transform="rotate(0,139.5,181.5)"></rect><rect x="136" y="192" width="7" height="7" transform="rotate(0,139.5,195.5)"></rect><rect x="143" y="3" width="7" height="7" transform="rotate(0,146.5,6.5)"></rect><rect x="143" y="10" width="7" height="7" transform="rotate(0,146.5,13.5)"></rect><rect x="143" y="17" width="7" height="7" transform="rotate(0,146.5,20.5)"></rect><rect x="143" y="24" width="7" height="7" transform="rotate(0,146.5,27.5)"></rect><rect x="143" y="31" width="7" height="7" transform="rotate(0,146.5,34.5)"></rect><rect x="143" y="38" width="7" height="7" transform="rotate(0,146.5,41.5)"></rect><rect x="143" y="45" width="7" height="7" transform="rotate(0,146.5,48.5)"></rect><rect x="143" y="59" width="7" height="7" transform="rotate(0,146.5,62.5)"></rect><rect x="143" y="66" width="7" height="7" transform="rotate(0,146.5,69.5)"></rect><rect x="143" y="87" width="7" height="7" transform="rotate(0,146.5,90.5)"></rect><rect x="143" y="122" width="7" height="7" transform="rotate(0,146.5,125.5)"></rect><rect x="143" y="136" width="7" height="7" transform="rotate(0,146.5,139.5)"></rect><rect x="143" y="143" width="7" height="7" transform="rotate(0,146.5,146.5)"></rect><rect x="143" y="150" width="7" height="7" transform="rotate(0,146.5,153.5)"></rect><rect x="143" y="157" width="7" height="7" transform="rotate(0,146.5,160.5)"></rect><rect x="143" y="164" width="7" height="7" transform="rotate(0,146.5,167.5)"></rect><rect x="143" y="171" width="7" height="7" transform="rotate(0,146.5,174.5)"></rect><rect x="143" y="178" width="7" height="7" transform="rotate(0,146.5,181.5)"></rect><rect x="143" y="192" width="7" height="7" transform="rotate(0,146.5,195.5)"></rect><rect x="143" y="199" width="7" height="7" transform="rotate(0,146.5,202.5)"></rect><rect x="150" y="59" width="7" height="7" transform="rotate(0,153.5,62.5)"></rect><rect x="150" y="73" width="7" height="7" transform="rotate(0,153.5,76.5)"></rect><rect x="150" y="80" width="7" height="7" transform="rotate(0,153.5,83.5)"></rect><rect x="150" y="108" width="7" height="7" transform="rotate(0,153.5,111.5)"></rect><rect x="150" y="115" width="7" height="7" transform="rotate(0,153.5,118.5)"></rect><rect x="150" y="129" width="7" height="7" transform="rotate(0,153.5,132.5)"></rect><rect x="150" y="136" width="7" height="7" transform="rotate(0,153.5,139.5)"></rect><rect x="150" y="143" width="7" height="7" transform="rotate(0,153.5,146.5)"></rect><rect x="150" y="171" width="7" height="7" transform="rotate(0,153.5,174.5)"></rect><rect x="150" y="185" width="7" height="7" transform="rotate(0,153.5,188.5)"></rect><rect x="150" y="199" width="7" height="7" transform="rotate(0,153.5,202.5)"></rect><rect x="157" y="66" width="7" height="7" transform="rotate(0,160.5,69.5)"></rect><rect x="157" y="73" width="7" height="7" transform="rotate(0,160.5,76.5)"></rect><rect x="157" y="108" width="7" height="7" transform="rotate(0,160.5,111.5)"></rect><rect x="157" y="115" width="7" height="7" transform="rotate(0,160.5,118.5)"></rect><rect x="157" y="122" width="7" height="7" transform="rotate(0,160.5,125.5)"></rect><rect x="157" y="129" width="7" height="7" transform="rotate(0,160.5,132.5)"></rect><rect x="157" y="136" width="7" height="7" transform="rotate(0,160.5,139.5)"></rect><rect x="157" y="143" width="7" height="7" transform="rotate(0,160.5,146.5)"></rect><rect x="157" y="157" width="7" height="7" transform="rotate(0,160.5,160.5)"></rect><rect x="157" y="171" width="7" height="7" transform="rotate(0,160.5,174.5)"></rect><rect x="157" y="192" width="7" height="7" transform="rotate(0,160.5,195.5)"></rect><rect x="157" y="199" width="7" height="7" transform="rotate(0,160.5,202.5)"></rect><rect x="164" y="73" width="7" height="7" transform="rotate(0,167.5,76.5)"></rect><rect x="164" y="80" width="7" height="7" transform="rotate(0,167.5,83.5)"></rect><rect x="164" y="87" width="7" height="7" transform="rotate(0,167.5,90.5)"></rect><rect x="164" y="108" width="7" height="7" transform="rotate(0,167.5,111.5)"></rect><rect x="164" y="122" width="7" height="7" transform="rotate(0,167.5,125.5)"></rect><rect x="164" y="129" width="7" height="7" transform="rotate(0,167.5,132.5)"></rect><rect x="164" y="136" width="7" height="7" transform="rotate(0,167.5,139.5)"></rect><rect x="164" y="143" width="7" height="7" transform="rotate(0,167.5,146.5)"></rect><rect x="164" y="171" width="7" height="7" transform="rotate(0,167.5,174.5)"></rect><rect x="164" y="178" width="7" height="7" transform="rotate(0,167.5,181.5)"></rect><rect x="164" y="199" width="7" height="7" transform="rotate(0,167.5,202.5)"></rect><rect x="171" y="59" width="7" height="7" transform="rotate(0,174.5,62.5)"></rect><rect x="171" y="66" width="7" height="7" transform="rotate(0,174.5,69.5)"></rect><rect x="171" y="73" width="7" height="7" transform="rotate(0,174.5,76.5)"></rect><rect x="171" y="80" width="7" height="7" transform="rotate(0,174.5,83.5)"></rect><rect x="171" y="87" width="7" height="7" transform="rotate(0,174.5,90.5)"></rect><rect x="171" y="94" width="7" height="7" transform="rotate(0,174.5,97.5)"></rect><rect x="171" y="101" width="7" height="7" transform="rotate(0,174.5,104.5)"></rect><rect x="171" y="129" width="7" height="7" transform="rotate(0,174.5,132.5)"></rect><rect x="171" y="136" width="7" height="7" transform="rotate(0,174.5,139.5)"></rect><rect x="171" y="143" width="7" height="7" transform="rotate(0,174.5,146.5)"></rect><rect x="171" y="150" width="7" height="7" transform="rotate(0,174.5,153.5)"></rect><rect x="171" y="157" width="7" height="7" transform="rotate(0,174.5,160.5)"></rect><rect x="171" y="164" width="7" height="7" transform="rotate(0,174.5,167.5)"></rect><rect x="171" y="171" width="7" height="7" transform="rotate(0,174.5,174.5)"></rect><rect x="171" y="192" width="7" height="7" transform="rotate(0,174.5,195.5)"></rect><rect x="178" y="66" width="7" height="7" transform="rotate(0,181.5,69.5)"></rect><rect x="178" y="87" width="7" height="7" transform="rotate(0,181.5,90.5)"></rect><rect x="178" y="94" width="7" height="7" transform="rotate(0,181.5,97.5)"></rect><rect x="178" y="101" width="7" height="7" transform="rotate(0,181.5,104.5)"></rect><rect x="178" y="115" width="7" height="7" transform="rotate(0,181.5,118.5)"></rect><rect x="178" y="122" width="7" height="7" transform="rotate(0,181.5,125.5)"></rect><rect x="178" y="129" width="7" height="7" transform="rotate(0,181.5,132.5)"></rect><rect x="178" y="164" width="7" height="7" transform="rotate(0,181.5,167.5)"></rect><rect x="178" y="178" width="7" height="7" transform="rotate(0,181.5,181.5)"></rect><rect x="178" y="185" width="7" height="7" transform="rotate(0,181.5,188.5)"></rect><rect x="178" y="192" width="7" height="7" transform="rotate(0,181.5,195.5)"></rect><rect x="185" y="94" width="7" height="7" transform="rotate(0,188.5,97.5)"></rect><rect x="185" y="115" width="7" height="7" transform="rotate(0,188.5,118.5)"></rect><rect x="185" y="129" width="7" height="7" transform="rotate(0,188.5,132.5)"></rect><rect x="185" y="136" width="7" height="7" transform="rotate(0,188.5,139.5)"></rect><rect x="185" y="143" width="7" height="7" transform="rotate(0,188.5,146.5)"></rect><rect x="185" y="150" width="7" height="7" transform="rotate(0,188.5,153.5)"></rect><rect x="185" y="185" width="7" height="7" transform="rotate(0,188.5,188.5)"></rect><rect x="185" y="192" width="7" height="7" transform="rotate(0,188.5,195.5)"></rect><rect x="185" y="199" width="7" height="7" transform="rotate(0,188.5,202.5)"></rect><rect x="192" y="59" width="7" height="7" transform="rotate(0,195.5,62.5)"></rect><rect x="192" y="66" width="7" height="7" transform="rotate(0,195.5,69.5)"></rect><rect x="192" y="73" width="7" height="7" transform="rotate(0,195.5,76.5)"></rect><rect x="192" y="80" width="7" height="7" transform="rotate(0,195.5,83.5)"></rect><rect x="192" y="101" width="7" height="7" transform="rotate(0,195.5,104.5)"></rect><rect x="192" y="122" width="7" height="7" transform="rotate(0,195.5,125.5)"></rect><rect x="192" y="129" width="7" height="7" transform="rotate(0,195.5,132.5)"></rect><rect x="192" y="136" width="7" height="7" transform="rotate(0,195.5,139.5)"></rect><rect x="192" y="143" width="7" height="7" transform="rotate(0,195.5,146.5)"></rect><rect x="192" y="157" width="7" height="7" transform="rotate(0,195.5,160.5)"></rect><rect x="192" y="164" width="7" height="7" transform="rotate(0,195.5,167.5)"></rect><rect x="192" y="178" width="7" height="7" transform="rotate(0,195.5,181.5)"></rect><rect x="192" y="192" width="7" height="7" transform="rotate(0,195.5,195.5)"></rect><rect x="192" y="199" width="7" height="7" transform="rotate(0,195.5,202.5)"></rect><rect x="199" y="73" width="7" height="7" transform="rotate(0,202.5,76.5)"></rect><rect x="199" y="87" width="7" height="7" transform="rotate(0,202.5,90.5)"></rect><rect x="199" y="94" width="7" height="7" transform="rotate(0,202.5,97.5)"></rect><rect x="199" y="101" width="7" height="7" transform="rotate(0,202.5,104.5)"></rect><rect x="199" y="108" width="7" height="7" transform="rotate(0,202.5,111.5)"></rect><rect x="199" y="122" width="7" height="7" transform="rotate(0,202.5,125.5)"></rect><rect x="199" y="136" width="7" height="7" transform="rotate(0,202.5,139.5)"></rect><rect x="199" y="143" width="7" height="7" transform="rotate(0,202.5,146.5)"></rect><rect x="199" y="150" width="7" height="7" transform="rotate(0,202.5,153.5)"></rect><rect x="199" y="157" width="7" height="7" transform="rotate(0,202.5,160.5)"></rect><rect x="199" y="171" width="7" height="7" transform="rotate(0,202.5,174.5)"></rect><rect x="199" y="178" width="7" height="7" transform="rotate(0,202.5,181.5)"></rect><rect x="199" y="192" width="7" height="7" transform="rotate(0,202.5,195.5)"></rect></g><g id="clip-path-corners-square-color-0-0" fill="#000000"><rect x="3" y="3" width="7" height="7" transform="rotate(0,6.5,6.5)"></rect><rect x="3" y="10" width="7" height="7" transform="rotate(0,6.5,13.5)"></rect><rect x="3" y="17" width="7" height="7" transform="rotate(0,6.5,20.5)"></rect><rect x="3" y="24" width="7" height="7" transform="rotate(0,6.5,27.5)"></rect><rect x="3" y="31" width="7" height="7" transform="rotate(0,6.5,34.5)"></rect><rect x="3" y="38" width="7" height="7" transform="rotate(0,6.5,41.5)"></rect><rect x="3" y="45" width="7" height="7" transform="rotate(0,6.5,48.5)"></rect><rect x="10" y="3" width="7" height="7" transform="rotate(0,13.5,6.5)"></rect><rect x="10" y="45" width="7" height="7" transform="rotate(0,13.5,48.5)"></rect><rect x="17" y="3" width="7" height="7" transform="rotate(0,20.5,6.5)"></rect><rect x="17" y="45" width="7" height="7" transform="rotate(0,20.5,48.5)"></rect><rect x="24" y="3" width="7" height="7" transform="rotate(0,27.5,6.5)"></rect><rect x="24" y="45" width="7" height="7" transform="rotate(0,27.5,48.5)"></rect><rect x="31" y="3" width="7" height="7" transform="rotate(0,34.5,6.5)"></rect><rect x="31" y="45" width="7" height="7" transform="rotate(0,34.5,48.5)"></rect><rect x="38" y="3" width="7" height="7" transform="rotate(0,41.5,6.5)"></rect><rect x="38" y="45" width="7" height="7" transform="rotate(0,41.5,48.5)"></rect><rect x="45" y="3" width="7" height="7" transform="rotate(0,48.5,6.5)"></rect><rect x="45" y="10" width="7" height="7" transform="rotate(0,48.5,13.5)"></rect><rect x="45" y="17" width="7" height="7" transform="rotate(0,48.5,20.5)"></rect><rect x="45" y="24" width="7" height="7" transform="rotate(0,48.5,27.5)"></rect><rect x="45" y="31" width="7" height="7" transform="rotate(0,48.5,34.5)"></rect><rect x="45" y="38" width="7" height="7" transform="rotate(0,48.5,41.5)"></rect><rect x="45" y="45" width="7" height="7" transform="rotate(0,48.5,48.5)"></rect></g><g id="clip-path-corners-dot-color-0-0" fill="#000000"><rect x="17" y="17" width="7" height="7" transform="rotate(0,20.5,20.5)"></rect><rect x="17" y="24" width="7" height="7" transform="rotate(0,20.5,27.5)"></rect><rect x="17" y="31" width="7" height="7" transform="rotate(0,20.5,34.5)"></rect><rect x="24" y="17" width="7" height="7" transform="rotate(0,27.5,20.5)"></rect><rect x="24" y="24" width="7" height="7" transform="rotate(0,27.5,27.5)"></rect><rect x="24" y="31" width="7" height="7" transform="rotate(0,27.5,34.5)"></rect><rect x="31" y="17" width="7" height="7" transform="rotate(0,34.5,20.5)"></rect><rect x="31" y="24" width="7" height="7" transform="rotate(0,34.5,27.5)"></rect><rect x="31" y="31" width="7" height="7" transform="rotate(0,34.5,34.5)"></rect></g><g id="clip-path-corners-square-color-1-0" fill="#000000"><rect x="157" y="3" width="7" height="7" transform="rotate(0,160.5,6.5)"></rect><rect x="157" y="10" width="7" height="7" transform="rotate(0,160.5,13.5)"></rect><rect x="157" y="17" width="7" height="7" transform="rotate(0,160.5,20.5)"></rect><rect x="157" y="24" width="7" height="7" transform="rotate(0,160.5,27.5)"></rect><rect x="157" y="31" width="7" height="7" transform="rotate(0,160.5,34.5)"></rect><rect x="157" y="38" width="7" height="7" transform="rotate(0,160.5,41.5)"></rect><rect x="157" y="45" width="7" height="7" transform="rotate(0,160.5,48.5)"></rect><rect x="164" y="3" width="7" height="7" transform="rotate(0,167.5,6.5)"></rect><rect x="164" y="45" width="7" height="7" transform="rotate(0,167.5,48.5)"></rect><rect x="171" y="3" width="7" height="7" transform="rotate(0,174.5,6.5)"></rect><rect x="171" y="45" width="7" height="7" transform="rotate(0,174.5,48.5)"></rect><rect x="178" y="3" width="7" height="7" transform="rotate(0,181.5,6.5)"></rect><rect x="178" y="45" width="7" height="7" transform="rotate(0,181.5,48.5)"></rect><rect x="185" y="3" width="7" height="7" transform="rotate(0,188.5,6.5)"></rect><rect x="185" y="45" width="7" height="7" transform="rotate(0,188.5,48.5)"></rect><rect x="192" y="3" width="7" height="7" transform="rotate(0,195.5,6.5)"></rect><rect x="192" y="45" width="7" height="7" transform="rotate(0,195.5,48.5)"></rect><rect x="199" y="3" width="7" height="7" transform="rotate(0,202.5,6.5)"></rect><rect x="199" y="10" width="7" height="7" transform="rotate(0,202.5,13.5)"></rect><rect x="199" y="17" width="7" height="7" transform="rotate(0,202.5,20.5)"></rect><rect x="199" y="24" width="7" height="7" transform="rotate(0,202.5,27.5)"></rect><rect x="199" y="31" width="7" height="7" transform="rotate(0,202.5,34.5)"></rect><rect x="199" y="38" width="7" height="7" transform="rotate(0,202.5,41.5)"></rect><rect x="199" y="45" width="7" height="7" transform="rotate(0,202.5,48.5)"></rect></g><g id="clip-path-corners-dot-color-1-0" fill="#000000"><rect x="171" y="17" width="7" height="7" transform="rotate(0,174.5,20.5)"></rect><rect x="171" y="24" width="7" height="7" transform="rotate(0,174.5,27.5)"></rect><rect x="171" y="31" width="7" height="7" transform="rotate(0,174.5,34.5)"></rect><rect x="178" y="17" width="7" height="7" transform="rotate(0,181.5,20.5)"></rect><rect x="178" y="24" width="7" height="7" transform="rotate(0,181.5,27.5)"></rect><rect x="178" y="31" width="7" height="7" transform="rotate(0,181.5,34.5)"></rect><rect x="185" y="17" width="7" height="7" transform="rotate(0,188.5,20.5)"></rect><rect x="185" y="24" width="7" height="7" transform="rotate(0,188.5,27.5)"></rect><rect x="185" y="31" width="7" height="7" transform="rotate(0,188.5,34.5)"></rect></g><g id="clip-path-corners-square-color-0-1" fill="#000000"><rect x="3" y="157" width="7" height="7" transform="rotate(0,6.5,160.5)"></rect><rect x="3" y="164" width="7" height="7" transform="rotate(0,6.5,167.5)"></rect><rect x="3" y="171" width="7" height="7" transform="rotate(0,6.5,174.5)"></rect><rect x="3" y="178" width="7" height="7" transform="rotate(0,6.5,181.5)"></rect><rect x="3" y="185" width="7" height="7" transform="rotate(0,6.5,188.5)"></rect><rect x="3" y="192" width="7" height="7" transform="rotate(0,6.5,195.5)"></rect><rect x="3" y="199" width="7" height="7" transform="rotate(0,6.5,202.5)"></rect><rect x="10" y="157" width="7" height="7" transform="rotate(0,13.5,160.5)"></rect><rect x="10" y="199" width="7" height="7" transform="rotate(0,13.5,202.5)"></rect><rect x="17" y="157" width="7" height="7" transform="rotate(0,20.5,160.5)"></rect><rect x="17" y="199" width="7" height="7" transform="rotate(0,20.5,202.5)"></rect><rect x="24" y="157" width="7" height="7" transform="rotate(0,27.5,160.5)"></rect><rect x="24" y="199" width="7" height="7" transform="rotate(0,27.5,202.5)"></rect><rect x="31" y="157" width="7" height="7" transform="rotate(0,34.5,160.5)"></rect><rect x="31" y="199" width="7" height="7" transform="rotate(0,34.5,202.5)"></rect><rect x="38" y="157" width="7" height="7" transform="rotate(0,41.5,160.5)"></rect><rect x="38" y="199" width="7" height="7" transform="rotate(0,41.5,202.5)"></rect><rect x="45" y="157" width="7" height="7" transform="rotate(0,48.5,160.5)"></rect><rect x="45" y="164" width="7" height="7" transform="rotate(0,48.5,167.5)"></rect><rect x="45" y="171" width="7" height="7" transform="rotate(0,48.5,174.5)"></rect><rect x="45" y="178" width="7" height="7" transform="rotate(0,48.5,181.5)"></rect><rect x="45" y="185" width="7" height="7" transform="rotate(0,48.5,188.5)"></rect><rect x="45" y="192" width="7" height="7" transform="rotate(0,48.5,195.5)"></rect><rect x="45" y="199" width="7" height="7" transform="rotate(0,48.5,202.5)"></rect></g><g id="clip-path-corners-dot-color-0-1" fill="#000000"><rect x="17" y="171" width="7" height="7" transform="rotate(0,20.5,174.5)"></rect><rect x="17" y="178" width="7" height="7" transform="rotate(0,20.5,181.5)"></rect><rect x="17" y="185" width="7" height="7" transform="rotate(0,20.5,188.5)"></rect><rect x="24" y="171" width="7" height="7" transform="rotate(0,27.5,174.5)"></rect><rect x="24" y="178" width="7" height="7" transform="rotate(0,27.5,181.5)"></rect><rect x="24" y="185" width="7" height="7" transform="rotate(0,27.5,188.5)"></rect><rect x="31" y="171" width="7" height="7" transform="rotate(0,34.5,174.5)"></rect><rect x="31" y="178" width="7" height="7" transform="rotate(0,34.5,181.5)"></rect><rect x="31" y="185" width="7" height="7" transform="rotate(0,34.5,188.5)"></rect></g></svg>
    </svg>
  
      <rect x="3" y="355" width="334" height="94" rx="19" fill="#000000"></rect>
      <rect x="3" y="357" width="334" height="94" rx="19" stroke="#000000" fill="#000000" stroke-width="6"></rect>
      
<svg x="19" y="361" width="302" height="90" viewBox="0 0 334 90">
    <text x="167" y="45" text-anchor="middle" alignment-baseline="central" style="font-family: sans-serif; font-weight: 500; font-size: 40px; fill: #ffffff">
      KMC
    </text>
</svg>

    </svg>